<svg xmlns="http://www.w3.org/2000/svg" viewBox="0 0 726 166" role="img" aria-label="Bestek — idea to spec to software">
  <g id="mark" transform="translate(0,17)">
    <!-- Recreated mark — replace this group with your original mark-*.svg paths if preferred -->
    <rect width="132" height="132" rx="32" fill="#4F39F6"/>
    <polygon points="31.7,29.0 52.8,29.0 66.0,68.6 79.2,29.0 100.3,29.0 76.6,89.8 55.4,89.8" fill="#FFFFFF"/>
    <rect x="55.4" y="97.7" width="21.1" height="9.2" fill="#FFFFFF"/>
  </g>
  <rect x="160" y="0" width="72" height="12" fill="#18181B"/>
    <rect x="160" y="12" width="72" height="12" fill="#18181B"/>
    <rect x="160" y="24" width="24" height="12" fill="#18181B"/>
    <rect x="220" y="24" width="24" height="12" fill="#18181B"/>
    <rect x="160" y="36" width="24" height="12" fill="#18181B"/>
    <rect x="220" y="36" width="24" height="12" fill="#18181B"/>
    <rect x="160" y="48" width="72" height="12" fill="#18181B"/>
    <rect x="160" y="60" width="72" height="12" fill="#18181B"/>
    <rect x="160" y="72" width="24" height="12" fill="#18181B"/>
    <rect x="220" y="72" width="24" height="12" fill="#18181B"/>
    <rect x="160" y="84" width="24" height="12" fill="#18181B"/>
    <rect x="220" y="84" width="24" height="12" fill="#18181B"/>
    <rect x="160" y="96" width="24" height="12" fill="#18181B"/>
    <rect x="220" y="96" width="24" height="12" fill="#18181B"/>
    <rect x="160" y="108" width="72" height="12" fill="#18181B"/>
    <rect x="160" y="120" width="72" height="12" fill="#18181B"/>
    <rect x="254" y="0" width="84" height="12" fill="#18181B"/>
    <rect x="254" y="12" width="84" height="12" fill="#18181B"/>
    <rect x="254" y="24" width="24" height="12" fill="#18181B"/>
    <rect x="254" y="36" width="24" height="12" fill="#18181B"/>
    <rect x="254" y="48" width="72" height="12" fill="#18181B"/>
    <rect x="254" y="60" width="72" height="12" fill="#18181B"/>
    <rect x="254" y="72" width="24" height="12" fill="#18181B"/>
    <rect x="254" y="84" width="24" height="12" fill="#18181B"/>
    <rect x="254" y="96" width="24" height="12" fill="#18181B"/>
    <rect x="254" y="108" width="84" height="12" fill="#18181B"/>
    <rect x="254" y="120" width="84" height="12" fill="#18181B"/>
    <rect x="360" y="0" width="72" height="12" fill="#4F39F6"/>
    <rect x="348" y="12" width="84" height="12" fill="#4F39F6"/>
    <rect x="348" y="24" width="24" height="12" fill="#4F39F6"/>
    <rect x="348" y="36" width="24" height="12" fill="#4F39F6"/>
    <rect x="348" y="48" width="72" height="12" fill="#4F39F6"/>
    <rect x="360" y="60" width="72" height="12" fill="#4F39F6"/>
    <rect x="408" y="72" width="24" height="12" fill="#4F39F6"/>
    <rect x="408" y="84" width="24" height="12" fill="#4F39F6"/>
    <rect x="408" y="96" width="24" height="12" fill="#4F39F6"/>
    <rect x="348" y="108" width="72" height="12" fill="#4F39F6"/>
    <rect x="348" y="120" width="72" height="12" fill="#4F39F6"/>
    <rect x="442" y="0" width="96" height="12" fill="#4F39F6"/>
    <rect x="442" y="12" width="96" height="12" fill="#4F39F6"/>
    <rect x="478" y="24" width="24" height="12" fill="#4F39F6"/>
    <rect x="478" y="36" width="24" height="12" fill="#4F39F6"/>
    <rect x="478" y="48" width="24" height="12" fill="#4F39F6"/>
    <rect x="478" y="60" width="24" height="12" fill="#4F39F6"/>
    <rect x="478" y="72" width="24" height="12" fill="#4F39F6"/>
    <rect x="478" y="84" width="24" height="12" fill="#4F39F6"/>
    <rect x="478" y="96" width="24" height="12" fill="#4F39F6"/>
    <rect x="478" y="108" width="24" height="12" fill="#4F39F6"/>
    <rect x="478" y="120" width="24" height="12" fill="#4F39F6"/>
    <rect x="548" y="0" width="84" height="12" fill="#4F39F6"/>
    <rect x="548" y="12" width="84" height="12" fill="#4F39F6"/>
    <rect x="548" y="24" width="24" height="12" fill="#4F39F6"/>
    <rect x="548" y="36" width="24" height="12" fill="#4F39F6"/>
    <rect x="548" y="48" width="72" height="12" fill="#4F39F6"/>
    <rect x="548" y="60" width="72" height="12" fill="#4F39F6"/>
    <rect x="548" y="72" width="24" height="12" fill="#4F39F6"/>
    <rect x="548" y="84" width="24" height="12" fill="#4F39F6"/>
    <rect x="548" y="96" width="24" height="12" fill="#4F39F6"/>
    <rect x="548" y="108" width="84" height="12" fill="#4F39F6"/>
    <rect x="548" y="120" width="84" height="12" fill="#4F39F6"/>
    <rect x="642" y="0" width="24" height="12" fill="#4F39F6"/>
    <rect x="702" y="0" width="24" height="12" fill="#4F39F6"/>
    <rect x="642" y="12" width="24" height="12" fill="#4F39F6"/>
    <rect x="702" y="12" width="24" height="12" fill="#4F39F6"/>
    <rect x="642" y="24" width="24" height="12" fill="#4F39F6"/>
    <rect x="690" y="24" width="24" height="12" fill="#4F39F6"/>
    <rect x="642" y="36" width="24" height="12" fill="#4F39F6"/>
    <rect x="678" y="36" width="24" height="12" fill="#4F39F6"/>
    <rect x="642" y="48" width="60" height="12" fill="#4F39F6"/>
    <rect x="642" y="60" width="48" height="12" fill="#4F39F6"/>
    <rect x="642" y="72" width="60" height="12" fill="#4F39F6"/>
    <rect x="642" y="84" width="24" height="12" fill="#4F39F6"/>
    <rect x="678" y="84" width="24" height="12" fill="#4F39F6"/>
    <rect x="642" y="96" width="24" height="12" fill="#4F39F6"/>
    <rect x="690" y="96" width="24" height="12" fill="#4F39F6"/>
    <rect x="642" y="108" width="24" height="12" fill="#4F39F6"/>
    <rect x="702" y="108" width="24" height="12" fill="#4F39F6"/>
    <rect x="642" y="120" width="24" height="12" fill="#4F39F6"/>
    <rect x="702" y="120" width="24" height="12" fill="#4F39F6"/>
  <text x="162" y="158" font-family="ui-monospace, 'Cascadia Mono', 'Courier New', monospace" font-size="13" letter-spacing="6" fill="#4F39F6">IDEA → SPEC → SOFTWARE</text>
</svg>