<svg xmlns="http://www.w3.org/2000/svg" viewBox="0 0 566 132" role="img" aria-label="Bestek">
  <rect x="0" y="0" width="72" height="12" fill="#18181B"/>
    <rect x="0" y="12" width="72" height="12" fill="#18181B"/>
    <rect x="0" y="24" width="24" height="12" fill="#18181B"/>
    <rect x="60" y="24" width="24" height="12" fill="#18181B"/>
    <rect x="0" y="36" width="24" height="12" fill="#18181B"/>
    <rect x="60" y="36" width="24" height="12" fill="#18181B"/>
    <rect x="0" y="48" width="72" height="12" fill="#18181B"/>
    <rect x="0" y="60" width="72" height="12" fill="#18181B"/>
    <rect x="0" y="72" width="24" height="12" fill="#18181B"/>
    <rect x="60" y="72" width="24" height="12" fill="#18181B"/>
    <rect x="0" y="84" width="24" height="12" fill="#18181B"/>
    <rect x="60" y="84" width="24" height="12" fill="#18181B"/>
    <rect x="0" y="96" width="24" height="12" fill="#18181B"/>
    <rect x="60" y="96" width="24" height="12" fill="#18181B"/>
    <rect x="0" y="108" width="72" height="12" fill="#18181B"/>
    <rect x="0" y="120" width="72" height="12" fill="#18181B"/>
    <rect x="94" y="0" width="84" height="12" fill="#18181B"/>
    <rect x="94" y="12" width="84" height="12" fill="#18181B"/>
    <rect x="94" y="24" width="24" height="12" fill="#18181B"/>
    <rect x="94" y="36" width="24" height="12" fill="#18181B"/>
    <rect x="94" y="48" width="72" height="12" fill="#18181B"/>
    <rect x="94" y="60" width="72" height="12" fill="#18181B"/>
    <rect x="94" y="72" width="24" height="12" fill="#18181B"/>
    <rect x="94" y="84" width="24" height="12" fill="#18181B"/>
    <rect x="94" y="96" width="24" height="12" fill="#18181B"/>
    <rect x="94" y="108" width="84" height="12" fill="#18181B"/>
    <rect x="94" y="120" width="84" height="12" fill="#18181B"/>
    <rect x="200" y="0" width="72" height="12" fill="#4F39F6"/>
    <rect x="188" y="12" width="84" height="12" fill="#4F39F6"/>
    <rect x="188" y="24" width="24" height="12" fill="#4F39F6"/>
    <rect x="188" y="36" width="24" height="12" fill="#4F39F6"/>
    <rect x="188" y="48" width="72" height="12" fill="#4F39F6"/>
    <rect x="200" y="60" width="72" height="12" fill="#4F39F6"/>
    <rect x="248" y="72" width="24" height="12" fill="#4F39F6"/>
    <rect x="248" y="84" width="24" height="12" fill="#4F39F6"/>
    <rect x="248" y="96" width="24" height="12" fill="#4F39F6"/>
    <rect x="188" y="108" width="72" height="12" fill="#4F39F6"/>
    <rect x="188" y="120" width="72" height="12" fill="#4F39F6"/>
    <rect x="282" y="0" width="96" height="12" fill="#4F39F6"/>
    <rect x="282" y="12" width="96" height="12" fill="#4F39F6"/>
    <rect x="318" y="24" width="24" height="12" fill="#4F39F6"/>
    <rect x="318" y="36" width="24" height="12" fill="#4F39F6"/>
    <rect x="318" y="48" width="24" height="12" fill="#4F39F6"/>
    <rect x="318" y="60" width="24" height="12" fill="#4F39F6"/>
    <rect x="318" y="72" width="24" height="12" fill="#4F39F6"/>
    <rect x="318" y="84" width="24" height="12" fill="#4F39F6"/>
    <rect x="318" y="96" width="24" height="12" fill="#4F39F6"/>
    <rect x="318" y="108" width="24" height="12" fill="#4F39F6"/>
    <rect x="318" y="120" width="24" height="12" fill="#4F39F6"/>
    <rect x="388" y="0" width="84" height="12" fill="#4F39F6"/>
    <rect x="388" y="12" width="84" height="12" fill="#4F39F6"/>
    <rect x="388" y="24" width="24" height="12" fill="#4F39F6"/>
    <rect x="388" y="36" width="24" height="12" fill="#4F39F6"/>
    <rect x="388" y="48" width="72" height="12" fill="#4F39F6"/>
    <rect x="388" y="60" width="72" height="12" fill="#4F39F6"/>
    <rect x="388" y="72" width="24" height="12" fill="#4F39F6"/>
    <rect x="388" y="84" width="24" height="12" fill="#4F39F6"/>
    <rect x="388" y="96" width="24" height="12" fill="#4F39F6"/>
    <rect x="388" y="108" width="84" height="12" fill="#4F39F6"/>
    <rect x="388" y="120" width="84" height="12" fill="#4F39F6"/>
    <rect x="482" y="0" width="24" height="12" fill="#4F39F6"/>
    <rect x="542" y="0" width="24" height="12" fill="#4F39F6"/>
    <rect x="482" y="12" width="24" height="12" fill="#4F39F6"/>
    <rect x="542" y="12" width="24" height="12" fill="#4F39F6"/>
    <rect x="482" y="24" width="24" height="12" fill="#4F39F6"/>
    <rect x="530" y="24" width="24" height="12" fill="#4F39F6"/>
    <rect x="482" y="36" width="24" height="12" fill="#4F39F6"/>
    <rect x="518" y="36" width="24" height="12" fill="#4F39F6"/>
    <rect x="482" y="48" width="60" height="12" fill="#4F39F6"/>
    <rect x="482" y="60" width="48" height="12" fill="#4F39F6"/>
    <rect x="482" y="72" width="60" height="12" fill="#4F39F6"/>
    <rect x="482" y="84" width="24" height="12" fill="#4F39F6"/>
    <rect x="518" y="84" width="24" height="12" fill="#4F39F6"/>
    <rect x="482" y="96" width="24" height="12" fill="#4F39F6"/>
    <rect x="530" y="96" width="24" height="12" fill="#4F39F6"/>
    <rect x="482" y="108" width="24" height="12" fill="#4F39F6"/>
    <rect x="542" y="108" width="24" height="12" fill="#4F39F6"/>
    <rect x="482" y="120" width="24" height="12" fill="#4F39F6"/>
    <rect x="542" y="120" width="24" height="12" fill="#4F39F6"/>
</svg>